<svg width="115" height="36" viewBox="0 0 115 36" fill="none" xmlns="http://www.w3.org/2000/svg">
<path d="M26.2094 16.5705C24.7166 13.9947 23.6173 11.2783 22.8161 8.80275C21.2374 3.92797 20.8154 0 20.8154 0L7.92871 8.1159L6.94385 8.73598C5.63706 9.55877 4.43758 10.5461 3.44557 11.7291C1.09192 14.5385 -0.238718 18.2423 0.0355168 22.2561C0.533909 29.554 6.44784 35.4662 13.7449 35.9647C15.8505 36.1077 17.8703 35.812 19.7208 35.1562C27.2563 32.4874 30.2204 23.4867 26.2094 16.5728V16.5705Z" fill="#FABA4F"/>
<path d="M9.88672 33.0132C17.6941 31.4177 22.8354 27.2154 25.0722 20.168C27.1063 30.3874 19.721 35.1524 9.88672 33.0132Z" fill="white"/>
<path d="M33.1445 30.8579L43.2435 5.14844H46.768L56.867 30.8579H52.9014L50.4404 24.3208H39.5712L37.1102 30.8579H33.1445ZM45.0058 9.92305L40.8183 20.9772H49.1908L45.0034 9.92305H45.0058Z" fill="#110B02"/>
<path d="M59.0703 30.8579V5.14844H62.8905V27.4785H75.4123V30.8579H59.0703Z" fill="#110B02"/>
<path d="M77.6518 30.8579V5.14844H87.6029C90.1497 5.14844 92.1695 5.86391 93.6623 7.29725C95.1551 8.73059 95.9015 10.598 95.9015 12.8971C95.9015 15.1961 95.1551 17.0659 93.6623 18.4992C92.1695 19.9326 90.1497 20.6481 87.6029 20.6481H81.4696V30.8579H77.6494H77.6518ZM87.4932 17.3426C89.0361 17.3426 90.1855 16.9276 90.9462 16.0929C91.7045 15.2605 92.0837 14.1945 92.0837 12.8971C92.0837 11.5997 91.7045 10.5336 90.9462 9.70126C90.1879 8.86892 89.0361 8.45156 87.4932 8.45156H81.4696V17.3402H87.4932V17.3426Z" fill="#110B02"/>
<path d="M98.1074 30.8579V5.14844H114.597V8.52787H101.928V15.9092H112.174V19.2887H101.928V27.4785H115V30.8579H98.1074Z" fill="#110B02"/>
</svg>
